<svg xmlns="http://www.w3.org/2000/svg" enable-background="new 0 0 32 32" viewBox="0 0 32 32" id="graphql"><path fill="#F5E6FE" d="M26,32H6c-3.314,0-6-2.686-6-6V6c0-3.314,2.686-6,6-6h20c3.314,0,6,2.686,6,6v20C32,29.314,29.314,32,26,32z"></path><path fill="#BE63F9" d="M11.104,11.479c-0.672-0.395-1.53-0.161-1.918,0.521c-0.066,0.118-0.116,0.245-0.147,0.377c-0.182,0.767,0.282,1.539,1.036,1.723l-0.001,3.799c-0.261,0.065-0.499,0.204-0.684,0.402c-0.535,0.57-0.514,1.473,0.046,2.017c0.56,0.545,1.449,0.523,1.983-0.047l3.235,1.898c-0.039,0.133-0.058,0.269-0.058,0.406C14.598,23.363,15.226,24.001,16,24c0.149,0,0.297-0.025,0.439-0.072c0.736-0.247,1.136-1.055,0.892-1.804l3.215-1.888c0.099,0.113,0.216,0.211,0.345,0.286c0.672,0.395,1.53,0.161,1.919-0.521c0.069-0.121,0.121-0.251,0.152-0.387c0.18-0.764-0.285-1.531-1.036-1.713v-3.799c0.129-0.032,0.252-0.082,0.366-0.149c0.674-0.393,0.908-1.267,0.522-1.952c-0.067-0.117-0.15-0.225-0.247-0.318c-0.563-0.544-1.452-0.521-1.987,0.051l-3.235-1.9c0.039-0.133,0.059-0.272,0.058-0.411C17.402,8.636,16.774,7.999,16,8c-0.135,0-0.271,0.019-0.4,0.059c-0.741,0.223-1.165,1.016-0.945,1.771l-3.237,1.9C11.327,11.631,11.22,11.546,11.104,11.479z M17.038,21.614c-0.257-0.286-0.627-0.465-1.038-0.465c-0.397,0-0.755,0.166-1.009,0.435l-3.237-1.901l0.014-0.055h8.466c0.007,0.032,0.015,0.063,0.025,0.095L17.038,21.614z M17.007,10.419l3.242,1.905c-0.005,0.015-0.009,0.032-0.012,0.048c-0.186,0.764,0.271,1.537,1.021,1.725v3.805c-0.017,0.005-0.037,0.009-0.054,0.015l-4.235-7.46C16.983,10.445,16.994,10.433,17.007,10.419z M15.61,10.796c0.255,0.075,0.526,0.075,0.781,0l4.236,7.457c-0.194,0.189-0.332,0.431-0.395,0.696h-8.463c-0.064-0.264-0.201-0.505-0.393-0.694L15.61,10.796z M11.749,12.319l3.242-1.901l0.039,0.04l-4.234,7.459l-0.055-0.015v-3.805c0.016-0.005,0.033-0.009,0.05-0.014C11.535,13.865,11.964,13.076,11.749,12.319z"></path></svg>